<svg width="228" height="82" viewBox="0 0 228 82" fill="none" xmlns="http://www.w3.org/2000/svg">
<path d="M108.517 50V32.5455H115.506C116.79 32.5455 117.861 32.7358 118.719 33.1165C119.577 33.4972 120.222 34.0256 120.653 34.7017C121.085 35.3722 121.301 36.1449 121.301 37.0199C121.301 37.7017 121.165 38.3011 120.892 38.8182C120.619 39.3295 120.244 39.75 119.767 40.0795C119.295 40.4034 118.756 40.6335 118.148 40.7699V40.9403C118.813 40.9687 119.435 41.1562 120.014 41.5028C120.599 41.8494 121.074 42.3352 121.438 42.9602C121.801 43.5795 121.983 44.3182 121.983 45.1761C121.983 46.1023 121.753 46.929 121.293 47.6562C120.838 48.3778 120.165 48.9489 119.273 49.3693C118.381 49.7898 117.281 50 115.974 50H108.517ZM112.207 46.983H115.216C116.244 46.983 116.994 46.7869 117.466 46.3949C117.938 45.9972 118.173 45.4687 118.173 44.8097C118.173 44.3267 118.057 43.9006 117.824 43.5312C117.591 43.1619 117.259 42.8722 116.827 42.6619C116.401 42.4517 115.892 42.3466 115.301 42.3466H112.207V46.983ZM112.207 39.8494H114.943C115.449 39.8494 115.898 39.7614 116.29 39.5852C116.688 39.4034 117 39.1477 117.227 38.8182C117.46 38.4886 117.577 38.0938 117.577 37.6335C117.577 37.0028 117.352 36.4943 116.903 36.108C116.46 35.7216 115.83 35.5284 115.011 35.5284H112.207V39.8494ZM124.316 50V36.9091H127.836V39.1932H127.972C128.211 38.3807 128.612 37.767 129.174 37.3523C129.737 36.9318 130.384 36.7216 131.117 36.7216C131.299 36.7216 131.495 36.733 131.705 36.7557C131.915 36.7784 132.1 36.8097 132.259 36.8494V40.071C132.089 40.0199 131.853 39.9744 131.552 39.9347C131.251 39.8949 130.975 39.875 130.725 39.875C130.191 39.875 129.714 39.9915 129.293 40.2244C128.879 40.4517 128.549 40.7699 128.305 41.179C128.066 41.5881 127.947 42.0597 127.947 42.5938V50H124.316ZM137.494 50.2472C136.659 50.2472 135.915 50.1023 135.261 49.8125C134.608 49.517 134.091 49.0824 133.71 48.5085C133.335 47.929 133.148 47.2074 133.148 46.3438C133.148 45.6165 133.281 45.0057 133.548 44.5114C133.815 44.017 134.179 43.6193 134.639 43.3182C135.099 43.017 135.622 42.7898 136.207 42.6364C136.798 42.483 137.418 42.375 138.065 42.3125C138.827 42.233 139.44 42.1591 139.906 42.0909C140.372 42.017 140.71 41.9091 140.92 41.767C141.131 41.625 141.236 41.4148 141.236 41.1364V41.0852C141.236 40.5455 141.065 40.1278 140.724 39.8324C140.389 39.5369 139.912 39.3892 139.293 39.3892C138.639 39.3892 138.119 39.5341 137.733 39.8239C137.347 40.108 137.091 40.4659 136.966 40.8977L133.608 40.625C133.778 39.8295 134.114 39.142 134.614 38.5625C135.114 37.9773 135.759 37.5284 136.548 37.2159C137.344 36.8977 138.264 36.7386 139.31 36.7386C140.037 36.7386 140.733 36.8239 141.398 36.9943C142.068 37.1648 142.662 37.429 143.179 37.7869C143.702 38.1449 144.114 38.6051 144.415 39.1676C144.716 39.7244 144.866 40.392 144.866 41.1705V50H141.423V48.1847H141.321C141.111 48.5938 140.83 48.9545 140.477 49.267C140.125 49.5739 139.702 49.8153 139.207 49.9915C138.713 50.1619 138.142 50.2472 137.494 50.2472ZM138.534 47.7415C139.068 47.7415 139.54 47.6364 139.949 47.4261C140.358 47.2102 140.679 46.9205 140.912 46.5568C141.145 46.1932 141.261 45.7812 141.261 45.321V43.9318C141.148 44.0057 140.991 44.0739 140.793 44.1364C140.599 44.1932 140.381 44.2472 140.136 44.2983C139.892 44.3437 139.648 44.3864 139.403 44.4261C139.159 44.4602 138.938 44.4915 138.739 44.5199C138.313 44.5824 137.94 44.6818 137.622 44.8182C137.304 44.9545 137.057 45.1392 136.881 45.3722C136.705 45.5994 136.616 45.8835 136.616 46.2244C136.616 46.7188 136.795 47.0966 137.153 47.358C137.517 47.6136 137.977 47.7415 138.534 47.7415ZM147.683 50V36.9091H151.314V50H147.683ZM149.507 35.2216C148.967 35.2216 148.504 35.0426 148.118 34.6847C147.737 34.321 147.547 33.8864 147.547 33.3807C147.547 32.8807 147.737 32.4517 148.118 32.0938C148.504 31.7301 148.967 31.5483 149.507 31.5483C150.047 31.5483 150.507 31.7301 150.888 32.0938C151.274 32.4517 151.467 32.8807 151.467 33.3807C151.467 33.8864 151.274 34.321 150.888 34.6847C150.507 35.0426 150.047 35.2216 149.507 35.2216ZM157.853 42.4318V50H154.222V36.9091H157.683V39.2188H157.836C158.126 38.4574 158.612 37.8551 159.293 37.4119C159.975 36.9631 160.802 36.7386 161.773 36.7386C162.683 36.7386 163.475 36.9375 164.151 37.3352C164.827 37.733 165.353 38.3011 165.728 39.0398C166.103 39.7727 166.29 40.6477 166.29 41.6648V50H162.66V42.3125C162.665 41.5114 162.461 40.8864 162.046 40.4375C161.631 39.983 161.06 39.7557 160.333 39.7557C159.844 39.7557 159.413 39.8608 159.038 40.071C158.668 40.2812 158.379 40.5881 158.168 40.9915C157.964 41.3892 157.859 41.8693 157.853 42.4318ZM184.621 38.6562H180.888C180.82 38.1733 180.68 37.7443 180.47 37.3693C180.26 36.9886 179.99 36.6648 179.661 36.3977C179.331 36.1307 178.95 35.9261 178.518 35.7841C178.092 35.642 177.629 35.571 177.129 35.571C176.226 35.571 175.439 35.7955 174.768 36.2443C174.098 36.6875 173.578 37.3352 173.209 38.1875C172.839 39.0341 172.655 40.0625 172.655 41.2727C172.655 42.517 172.839 43.5625 173.209 44.4091C173.584 45.2557 174.107 45.8949 174.777 46.3267C175.447 46.7585 176.223 46.9744 177.104 46.9744C177.598 46.9744 178.055 46.9091 178.476 46.7784C178.902 46.6477 179.28 46.4574 179.609 46.2074C179.939 45.9517 180.212 45.642 180.428 45.2784C180.649 44.9148 180.803 44.5 180.888 44.0341L184.621 44.0511C184.524 44.8523 184.283 45.625 183.896 46.3693C183.516 47.108 183.001 47.7699 182.354 48.3551C181.712 48.9347 180.945 49.3949 180.053 49.7358C179.166 50.071 178.163 50.2386 177.044 50.2386C175.487 50.2386 174.095 49.8864 172.868 49.1818C171.646 48.4773 170.68 47.4574 169.97 46.1222C169.266 44.7869 168.913 43.1705 168.913 41.2727C168.913 39.3693 169.271 37.75 169.987 36.4148C170.703 35.0795 171.675 34.0625 172.902 33.3636C174.129 32.6591 175.51 32.3068 177.044 32.3068C178.055 32.3068 178.993 32.4489 179.857 32.733C180.726 33.017 181.496 33.4318 182.166 33.9773C182.837 34.517 183.382 35.179 183.803 35.9631C184.229 36.7472 184.501 37.6449 184.621 38.6562ZM190.932 50.2472C190.097 50.2472 189.352 50.1023 188.699 49.8125C188.045 49.517 187.528 49.0824 187.148 48.5085C186.773 47.929 186.585 47.2074 186.585 46.3438C186.585 45.6165 186.719 45.0057 186.986 44.5114C187.253 44.017 187.616 43.6193 188.077 43.3182C188.537 43.017 189.06 42.7898 189.645 42.6364C190.236 42.483 190.855 42.375 191.503 42.3125C192.264 42.233 192.878 42.1591 193.344 42.0909C193.81 42.017 194.148 41.9091 194.358 41.767C194.568 41.625 194.673 41.4148 194.673 41.1364V41.0852C194.673 40.5455 194.503 40.1278 194.162 39.8324C193.827 39.5369 193.349 39.3892 192.73 39.3892C192.077 39.3892 191.557 39.5341 191.17 39.8239C190.784 40.108 190.528 40.4659 190.403 40.8977L187.045 40.625C187.216 39.8295 187.551 39.142 188.051 38.5625C188.551 37.9773 189.196 37.5284 189.986 37.2159C190.781 36.8977 191.702 36.7386 192.747 36.7386C193.474 36.7386 194.17 36.8239 194.835 36.9943C195.506 37.1648 196.099 37.429 196.616 37.7869C197.139 38.1449 197.551 38.6051 197.852 39.1676C198.153 39.7244 198.304 40.392 198.304 41.1705V50H194.861V48.1847H194.759C194.548 48.5938 194.267 48.9545 193.915 49.267C193.562 49.5739 193.139 49.8153 192.645 49.9915C192.151 50.1619 191.58 50.2472 190.932 50.2472ZM191.972 47.7415C192.506 47.7415 192.977 47.6364 193.386 47.4261C193.795 47.2102 194.116 46.9205 194.349 46.5568C194.582 46.1932 194.699 45.7812 194.699 45.321V43.9318C194.585 44.0057 194.429 44.0739 194.23 44.1364C194.037 44.1932 193.818 44.2472 193.574 44.2983C193.33 44.3437 193.085 44.3864 192.841 44.4261C192.597 44.4602 192.375 44.4915 192.176 44.5199C191.75 44.5824 191.378 44.6818 191.06 44.8182C190.741 44.9545 190.494 45.1392 190.318 45.3722C190.142 45.5994 190.054 45.8835 190.054 46.2244C190.054 46.7188 190.233 47.0966 190.591 47.358C190.955 47.6136 191.415 47.7415 191.972 47.7415ZM212.013 40.642L208.689 40.8466C208.632 40.5625 208.51 40.3068 208.322 40.0795C208.135 39.8466 207.888 39.6619 207.581 39.5256C207.28 39.3835 206.919 39.3125 206.499 39.3125C205.936 39.3125 205.462 39.4318 205.075 39.6705C204.689 39.9034 204.496 40.2159 204.496 40.608C204.496 40.9205 204.621 41.1847 204.871 41.4006C205.121 41.6165 205.55 41.7898 206.158 41.9205L208.527 42.3977C209.8 42.6591 210.749 43.0795 211.374 43.6591C211.999 44.2386 212.311 45 212.311 45.9432C212.311 46.8011 212.058 47.554 211.553 48.2017C211.053 48.8494 210.365 49.3551 209.49 49.7188C208.621 50.0767 207.618 50.2557 206.482 50.2557C204.749 50.2557 203.368 49.8949 202.339 49.1733C201.317 48.446 200.717 47.4574 200.541 46.2074L204.112 46.0199C204.22 46.5483 204.482 46.9517 204.896 47.2301C205.311 47.5028 205.842 47.6392 206.49 47.6392C207.126 47.6392 207.638 47.517 208.024 47.2727C208.416 47.0227 208.615 46.7017 208.621 46.3097C208.615 45.9801 208.476 45.7102 208.203 45.5C207.93 45.2841 207.51 45.1193 206.942 45.0057L204.675 44.554C203.396 44.2983 202.445 43.8551 201.82 43.2244C201.2 42.5937 200.891 41.7898 200.891 40.8125C200.891 39.9716 201.118 39.2472 201.572 38.6392C202.033 38.0312 202.678 37.5625 203.507 37.233C204.342 36.9034 205.32 36.7386 206.439 36.7386C208.092 36.7386 209.393 37.0881 210.342 37.7869C211.297 38.4858 211.854 39.4375 212.013 40.642ZM220.563 50.2557C219.217 50.2557 218.058 49.983 217.086 49.4375C216.12 48.8864 215.376 48.108 214.853 47.1023C214.33 46.0909 214.069 44.8949 214.069 43.5142C214.069 42.1676 214.33 40.9858 214.853 39.9688C215.376 38.9517 216.112 38.1591 217.06 37.5909C218.015 37.0227 219.134 36.7386 220.418 36.7386C221.282 36.7386 222.086 36.8778 222.83 37.1562C223.58 37.429 224.234 37.8409 224.79 38.392C225.353 38.9432 225.79 39.6364 226.103 40.4716C226.415 41.3011 226.572 42.2727 226.572 43.3864V44.3835H215.518V42.1335H223.154C223.154 41.6108 223.04 41.1477 222.813 40.7443C222.586 40.3409 222.271 40.0256 221.867 39.7983C221.469 39.5653 221.006 39.4489 220.478 39.4489C219.927 39.4489 219.438 39.5767 219.012 39.8324C218.592 40.0824 218.262 40.4205 218.023 40.8466C217.785 41.267 217.663 41.7358 217.657 42.2528V44.392C217.657 45.0398 217.776 45.5994 218.015 46.071C218.259 46.5426 218.603 46.9062 219.046 47.1619C219.489 47.4176 220.015 47.5455 220.623 47.5455C221.026 47.5455 221.396 47.4886 221.731 47.375C222.066 47.2614 222.353 47.0909 222.592 46.8636C222.83 46.6364 223.012 46.358 223.137 46.0284L226.495 46.25C226.325 47.0568 225.975 47.7614 225.447 48.3636C224.924 48.9602 224.248 49.4261 223.418 49.7614C222.594 50.0909 221.643 50.2557 220.563 50.2557Z" fill="white"/>
<rect x="1" y="1" width="80" height="80" fill="white" stroke="black" stroke-width="2"/>
</svg>
