<svg id="visual" viewBox="0 0 450 1024" width="450" height="1024" xmlns="http://www.w3.org/2000/svg" xmlns:xlink="http://www.w3.org/1999/xlink" version="1.1"><rect x="0" y="0" width="450" height="1024" fill="#F7A156"></rect><path d="M112 0L140.8 34.2C169.7 68.3 227.3 136.7 268.3 205C309.3 273.3 333.7 341.7 300.2 409.8C266.7 478 175.3 546 174.8 614.2C174.3 682.3 264.7 750.7 285.3 819C306 887.3 257 955.7 232.5 989.8L208 1024L0 1024L0 989.8C0 955.7 0 887.3 0 819C0 750.7 0 682.3 0 614.2C0 546 0 478 0 409.8C0 341.7 0 273.3 0 205C0 136.7 0 68.3 0 34.2L0 0Z" fill="#fff" stroke-linecap="round" stroke-linejoin="miter"></path></svg>